<?xml version="1.0" encoding="utf-8"?>
<!-- Generator: Adobe Illustrator 19.0.0, SVG Export Plug-In . SVG Version: 6.00 Build 0)  -->
<svg version="1.1" id="layer" xmlns="http://www.w3.org/2000/svg" xmlns:xlink="http://www.w3.org/1999/xlink" x="0px" y="0px"
	 viewBox="-153 -46 652 652" style="enable-background:new -153 -46 652 652;" xml:space="preserve">
<style type="text/css">
	.st0{fill:#2B2B2A;}
	.st1{fill:#F5C600;}
</style>
<g>
	<path class="st0" d="M-62.2,193.1c-19.1,0-34,15-34,34.1c0,19,15,33.9,34,33.9c19.1,0,34-14.9,34-33.9
		C-28.1,208-43.1,193.1-62.2,193.1 M-62.2,245.3c-10,0-16.7-7.3-16.7-18.1c0-10.9,6.7-18.2,16.7-18.2c10,0,16.7,7.3,16.7,18.2
		C-45.5,238-52.2,245.3-62.2,245.3"/>
	<path class="st0" d="M16.6,261.1c18.2,0,27.5-8.6,27.5-25.6v-42c0-0.1,0-0.2,0-0.3H27.8c-0.1,0-0.1,0-0.2,0c0,0.1,0,0.2,0,0.3v44.1
		c0,6.7-5.6,9.8-10.8,9.8c-5.2,0-10.8-3.1-10.8-9.8v-44c0-0.1,0-0.3,0-0.4c-0.1,0-0.2,0-0.3,0H-11v41.4
		C-11,251.6-1.1,261.1,16.6,261.1"/>
	<path class="st0" d="M91.6,241c0.1,0.1,7.5,11.7,10.9,18.3c0.9,1.8,1.2,1.8,1.8,1.8h18c0.1,0,0.5,0,0.5-0.1c0.1-0.1,0.2-0.6-0.7-2
		c-3.3-5.3-6.5-10.8-9.1-15.3c-2.1-3.6-4-6.8-5.2-8.6l-0.3-0.4l0.4-0.2c6-2.9,9.2-9.3,9.2-18.5c0-11.4-7.3-22.8-23.6-22.8H62
		c-0.1,0-0.2,0-0.2,0.5v66.9c0,0.2,0,0.4,0,0.5h17c0.3,0,0.4,0,0.4,0c0,0,0-0.1,0-0.5V241l12.3-0.2L91.6,241z M79.3,228.1v-20.7
		h10.4c5.7,0,9,3.7,9,9.8c0,6.3-3.4,10.3-8.8,10.5L79.3,228.1z M79.3,228.1"/>
	<path class="st0" d="M-122,226.4l-2.1-0.2l2-0.5c7.7-2.2,11.9-7.5,11.9-14.8c0-11.1-7.3-17.7-19.6-17.7h-29.4
		c-0.8,0-0.8,0.1-0.8,0.6v66.4c0,0.2,0,0.9,0.1,1c0,0,0.2,0,0.4,0h32.3c11.5,0,19-7.2,19-18.2C-108.3,235.5-113.1,227.3-122,226.4
		 M-142.7,206.5h8c4.4,0,6.9,2.4,6.9,6.9c0,4.3-2.6,6.9-6.9,6.9h-8V206.5z M-133.7,247.7h-9V232h9c4.3,0,7.4,3.3,7.4,7.9
		C-126.4,244.8-129.1,247.7-133.7,247.7"/>
	<path class="st0" d="M244,193.1c-19.1,0-34,15-34,34.1c0,19,14.9,33.9,34,33.9c19.1,0,34-14.9,34-33.9
		C278,208,263.1,193.1,244,193.1 M244,245.3c-10,0-16.7-7.3-16.7-18.1c0-10.9,6.7-18.2,16.7-18.2c10,0,16.7,7.3,16.7,18.2
		C260.7,238,253.9,245.3,244,245.3"/>
	<path class="st0" d="M329.1,394.2c0,0,0.1,0,0.6,0h16.7c0.1,0,0.1,0,0.1,0c0-0.1,0-0.3,0-0.5v-66.9c0-0.2,0-0.4,0-0.5
		c0,0-0.1,0-0.1,0h-16.7c-0.4,0-0.5,0-0.6,0.1c0,0,0,0.2,0,0.5v24.3h-23.8v-24.3c0-0.4,0-0.5-0.1-0.5c0,0-0.1,0-0.4,0h-16.9
		c0,0-0.1,0-0.1,0c0,0.1,0,0.3,0,0.5v66.9c0,0.2,0,0.4,0,0.5c0,0,0.1,0,0.1,0h16.9c0.3,0,0.4,0,0.4,0c0,0,0-0.1,0-0.5v-27.2H329
		v27.2C329,394.1,329.1,394.2,329.1,394.2"/>
	<path class="st0" d="M-74.4,396.2l0.1-0.4h17.5c0.5,0,0.5,0,0.5-1.1v-24l25.6,0.2c0.9,0,1-0.1,1.1-0.8c0.2-4.3,0.2-8.8,0-14.3
		c0-0.6-0.2-0.9-1-0.9l-25.7,0.3v-15.3l28.9,0.2c0.3,0,0.4,0,0.4,0c0,0,0-0.2,0-0.4l0-0.3c0.4-4.3,0.3-10.3,0-14.4l0-0.3
		c0-0.1,0-0.3,0-0.4c0,0-0.1,0-0.4,0h-46.8c-0.2,0-0.4,0-0.4,0c-0.1,0.1-0.1,0.8-0.1,0.9v69.4c0,0.8,0,1,0.1,1.1h0h0.1V396.2z
		 M-74.4,396.2"/>
	<path class="st0" d="M20.9,374.2c0.1,0.1,7.5,11.7,10.9,18.3c0.9,1.8,1.2,1.8,1.8,1.8h17.9c0.2,0,0.5,0,0.6-0.1
		c0-0.1,0.2-0.5-0.7-2c-3.2-5.2-6.5-10.7-9.1-15.1c-2.2-3.7-4.1-6.9-5.3-8.8l-0.2-0.4l0.4-0.2c6-2.8,9.2-9.3,9.2-18.5
		c0-11.4-7.3-22.8-23.6-22.8H-8.7c-0.1,0-0.2,0-0.2,0.5v66.9c0,0.2,0,0.4,0,0.5H8.1c0.3,0,0.4,0,0.4,0c0,0,0-0.1,0-0.5v-19.5
		l12.3-0.3L20.9,374.2z M8.5,361.3v-20.7h10.4c5.7,0,9,3.7,9,9.8c0,6.3-3.4,10.3-8.9,10.5L8.5,361.3z M8.5,361.3"/>
	<path class="st0" d="M77.9,390.3c0.7-1.8,1.4-3.6,2.1-5.3l0.1-0.2h24.2l0.1,0.3c0.6,1.6,2.3,5.7,3.6,8.7c0.2,0.5,0.4,0.5,0.8,0.5
		h18.3c0.1,0-4.7,0-4.6,0c0-0.1,4.8-0.4,4.6-0.8c-3.3-6.6-6.9-13.9-10.5-21.3c-8.2-16.6-16.8-33.9-22.9-45.9c0,0-0.1,0-0.2,0
		c-0.1,0-0.2,0-0.3,0c-0.1,0-0.2,0-0.4,0c-0.3,0-0.7,0-0.9,0c-7.5,14.1-23,45.4-33.3,67.1c-0.2,0.6-0.1,0.8-0.1,0.8s0.1,0,0.3,0
		h16.2c1.1,0,1.2-0.2,1.4-0.8C77,392.5,77.4,391.4,77.9,390.3 M85,372.3l7-15.7l7.6,16.2H84.7L85,372.3z M85,372.3"/>
	<path class="st0" d="M241.1,394.2c16.1,0,26.2-10.7,30-19.8c0.1-0.2,0.1-0.3,0-0.4c-0.1-0.1-0.3-0.2-0.6-0.3l-14.6-4
		c-0.1,0-0.2,0-0.2,0c-0.1,0-0.2,0-0.4,0.4l-0.1,0.2c-2.5,5.4-7.5,8.4-13.9,8.4c-8.2,0-16.6-5.6-16.6-18.1
		c0-10.9,6.7-18.4,16.3-18.4c6.7,0,11.6,3,14.5,9c0,0.1,0.1,0.3,0.1,0.4c0,0,0.1,0,0.2-0.1l14.4-5.6c0.1-0.1,0.5-0.2,0.1-1.2
		c-2.4-5.5-10.2-18.3-29.8-18.3c-19.1,0-33.6,14.7-33.6,34.1C207.1,379.7,221.8,394.2,241.1,394.2"/>
	<path class="st0" d="M-126.9,525.2c16.1,0,26.2-10.7,30-19.9c0.1-0.2,0.1-0.3,0-0.4c-0.1-0.1-0.3-0.2-0.6-0.3l-14.6-4
		c-0.1,0-0.2,0-0.2,0c-0.1,0-0.2,0-0.4,0.4l-0.1,0.2c-2.5,5.4-7.5,8.4-13.9,8.4c-8.2,0-16.6-5.6-16.6-18c0-10.9,6.7-18.5,16.3-18.5
		c6.7,0,11.6,3,14.5,9.1c0,0.1,0.1,0.3,0.1,0.3c0,0,0.1,0,0.2-0.1l14.4-5.6c0.1-0.1,0.5-0.3,0.1-1.2c-2.4-5.5-10.2-18.3-29.8-18.3
		c-19.1,0-33.6,14.7-33.6,34.1C-160.9,510.7-146.3,525.2-126.9,525.2"/>
	<path class="st0" d="M-50.7,457.2c-19.1,0-34,15-34,34c0,19,15,34,34,34c19.1,0,34.1-14.9,34.1-34
		C-16.6,472.2-31.5,457.2-50.7,457.2 M-50.7,509.4c-10,0-16.7-7.3-16.7-18.1c0-10.9,6.7-18.3,16.7-18.3c10,0,16.7,7.4,16.7,18.3
		C-34,502.1-40.7,509.4-50.7,509.4"/>
	<path class="st0" d="M43.9,495.1l0.6,29.8c0,0.4,0,0.4,0.4,0.4H61c0.2,0,0.3-0.1,0.3-0.1c0,0,0-0.3,0-0.4c0-0.1,0-0.3,0-0.5
		c-0.7-25-1.3-41.3-2.7-66.5c0-0.3-0.1-0.4-0.2-0.5c0,0,0,0-0.1,0c-0.1,0-0.3,0.1-0.5,0.2c-9.4,9.1-25.9,26.4-29.9,31.2l-0.3,0.4
		l-0.3-0.4c-4.6-5.2-21.9-22.6-30.1-30.7c-0.2-0.2-0.3-0.3-0.4-0.3c-0.1,0-0.2,0.2-0.3,0.8c-1.1,24.5-1.8,48.7-2,66.5v0.2
		c0.1,0,0.3,0,0.5,0H9.8c0.7,0,0.7,0,0.7-1l0.7-29.1l0.7,0.7c0.1,0.1,11.5,11.6,15.3,15.5c0.1,0.1,0.4,0.3,0.4,0.4
		c0,0,0.2-0.1,0.5-0.4c3.9-3.9,14.9-15.3,15-15.4L43.9,495.1z M43.9,495.1"/>
	<path class="st0" d="M126.5,471.2c0,0,0-0.1,0-0.3v-13.1c0-0.4,0-0.5-0.1-0.6c0,0,0,0-0.3,0H72.4c-0.3,0-0.4,0-0.4,0
		c0,0,0,0.3,0,0.6v13.4c0,0,0.1,0,0.3,0l18.2-0.2v53.6c0,0.2,0,0.4,0,0.5c0,0,0.1,0,0.2,0h17.2c0.4,0,0.5,0,0.5-0.1c0,0,0-0.1,0-0.5
		V471l17.7,0.2C126.4,471.3,126.5,471.2,126.5,471.2"/>
	<path class="st0" d="M126.8,131.1h-17.8c-0.8,0-1.2-0.2-2.1-2c-3.4-6.5-10.7-18-10.7-18l-11.5,0.2v19c0,0.8-0.1,0.9-0.8,0.9H67.5
		c-0.8,0-0.8,0.1-0.8-0.9V64c0-1,0.5-0.9,0.8-0.9h31.1c15.4,0,23.7,10.6,23.7,23c0,9.2-3.2,15.7-9.3,18.6
		c2.6,4.1,8.3,14.2,14.1,23.7C128.2,130.4,127.9,131.1,126.8,131.1 M94.6,78.1h-9.9v19.7l10-0.3c5.4-0.2,8.4-4.2,8.4-10
		C103.2,82.1,100.4,78.1,94.6,78.1"/>
	<path class="st0" d="M269.1,131.1c-0.4,0-0.7-0.2-0.9-0.3l-10.6-6.2c-3.9,3.5-8,6.5-17.6,6.5c-20.5,0-33.6-13.8-33.6-34
		c0-20.3,15-34,34.1-34c15.4,0,24.2,7.8,28.8,17.6c0.4,0.9,0.5,1.5-0.2,1.7L255,87.8c-0.7,0.3-1.1-0.2-1.4-0.8
		c-2.1-4.3-6.5-7.5-12.9-7.5c-10.4,0-16.3,7.2-16.3,17.6c0,10.9,6.2,17.5,16,17.5c8.2,0,12.6-5.4,13.7-12.2c0.1-0.6,0.4-0.9,0.8-0.9
		h14.4c0.6,0,0.8,0.2,0.8,0.7v28.5C270,130.7,270,131.1,269.1,131.1"/>
	<path class="st0" d="M306.8,131.1h-16.6c-0.9,0-0.9,0.1-0.9-0.9V64c0-1,0-0.9,0.9-0.9h16.6c0.9,0,1,0.1,1,0.9v66.2
		C307.8,131,307.7,131.1,306.8,131.1"/>
	<path class="st0" d="M359.1,131.1c-19.1,0-33.6-15.1-33.6-34c0-18.8,14.5-34,33.6-34c19.1,0,33.6,15.2,33.6,34
		C392.7,116,378.3,131.1,359.1,131.1 M359.1,79.5c-10.2,0-15.9,7.7-15.9,17.6c0,9.9,5.7,17.6,15.9,17.6c10,0,15.9-7.7,15.9-17.6
		C375,87.3,369.2,79.5,359.1,79.5"/>
	<path class="st0" d="M464.8,131c-0.2,0.1-0.5,0-0.9-0.3c-14.3-10.7-36.8-31.3-36.8-31.3v30.7c0,0.9,0,0.9-0.9,0.9H412
		c-0.7,0-1-0.6-1-0.9c-0.5-24.2-0.4-41,0-66.1c0-0.5,0.1-0.7,0.3-0.8c0.2-0.2,0.5-0.1,0.8,0.1C425.7,73,449,94.6,449,94.6V64.4
		c0-1,0-1.1,0.8-1.1h14.4c0.9,0,0.9,0.2,0.9,1.1c0.4,18.5,0.3,45.6,0,65.4C465.1,130.5,465.1,131,464.8,131"/>
	<path class="st0" d="M193.4,394.2c-0.2,0.1-0.5,0-0.9-0.3c-14.3-10.7-36.8-31.3-36.8-31.3v30.7c0,0.8,0,0.8-0.9,0.8h-14.4
		c-0.6,0-0.9-0.5-0.9-0.9c-0.5-24.2-0.4-41,0-66c0-0.5,0.1-0.7,0.3-0.8c0.2-0.2,0.5-0.1,0.8,0.1c13.6,9.7,36.9,31.3,36.9,31.3v-30.2
		c0-1,0-1.2,0.8-1.2h14.5c0.9,0,0.9,0.2,0.9,1.2c0.4,18.5,0.3,45.6,0,65.4C193.6,393.6,193.6,394.1,193.4,394.2"/>
	<path class="st0" d="M355.9,261.1c-0.4,0-0.6-0.2-0.9-0.3l-10.6-6.2c-3.9,3.5-8,6.5-17.5,6.5c-20.5,0-33.6-13.8-33.6-33.9
		c0-20.3,15-34.1,34-34.1c15.4,0,24.2,7.8,28.8,17.6c0.4,0.9,0.5,1.5-0.2,1.7l-14.1,5.4c-0.7,0.3-1.1-0.2-1.4-0.8
		c-2.1-4.3-6.5-7.5-12.8-7.5c-10.5,0-16.3,7.2-16.3,17.6c0,10.9,6.2,17.5,16,17.5c8.2,0,12.5-5.4,13.7-12.2c0.1-0.6,0.4-0.9,0.8-0.9
		H356c0.6,0,0.8,0.2,0.8,0.6v28.5C356.8,260.7,356.8,261.1,355.9,261.1"/>
	<path class="st0" d="M197.5,261.1c-0.4,0-0.6-0.2-0.9-0.3l-10.7-6.2c-3.9,3.5-8.1,6.5-17.5,6.5c-20.5,0-33.6-13.8-33.6-33.9
		c0-20.3,15-34.1,34-34.1c15.5,0,24.2,7.8,28.8,17.6c0.4,0.9,0.5,1.5-0.2,1.7l-14.1,5.4c-0.7,0.3-1.1-0.2-1.4-0.8
		c-2.1-4.3-6.5-7.5-12.8-7.5c-10.5,0-16.3,7.2-16.3,17.6c0,10.9,6.2,17.5,16,17.5c8.3,0,12.6-5.4,13.7-12.2c0.1-0.6,0.4-0.9,0.8-0.9
		h14.4c0.6,0,0.8,0.2,0.8,0.6v28.5C198.3,260.7,198.3,261.1,197.5,261.1"/>
	<path class="st0" d="M190.4,525.2h-47.8c-1,0-1.1-0.2-1.1-1.4v-65.5c0-0.9-0.1-1,0.9-1h47.9c1,0,1.1,0.1,1.1,1.3v12.2
		c0,0.9-0.3,1.4-1.1,1.4l-31.3-0.3v11.3h27.3c0.9,0,1,0.2,1,1.4v12.2c0,1.2-0.1,1.4-1,1.4h-27.3v11.6l31.3-0.3c1.1,0,1.1,0,1.1,1.3
		v12.9C191.6,525,191.5,525.2,190.4,525.2"/>
	<path class="st0" d="M190.4,131.1h-47.8c-1,0-1.1-0.2-1.1-1.4V64.1c0-0.9-0.1-1,0.9-1h47.9c1,0,1.1,0.1,1.1,1.3v12.2
		c0,0.9-0.3,1.4-1.1,1.4l-31.3-0.3v11.3h27.3c0.9,0,1,0.2,1,1.4v12.2c0,1.2-0.1,1.4-1,1.4h-27.3v11.6l31.3-0.3c1.1,0,1.1,0,1.1,1.3
		v12.9C191.6,130.9,191.5,131.1,190.4,131.1"/>
	<path class="st0" d="M431.1,261c-0.2,0.1-0.5,0-0.9-0.3c-14.3-10.7-36.8-31.3-36.8-31.3v30.7c0,0.8,0,0.8-0.9,0.8h-14.3
		c-0.7,0-0.9-0.6-0.9-0.9c-0.5-24.2-0.4-41,0-66.1c0-0.5,0.1-0.6,0.2-0.8c0.2-0.2,0.5-0.1,0.8,0.1c13.6,9.7,36.9,31.3,36.9,31.3
		v-30.2c0-1,0-1.1,0.8-1.1h14.4c1,0,1,0.2,1,1.1c0.4,18.5,0.3,45.6,0,65.4C431.4,260.5,431.4,261,431.1,261"/>
	<path class="st0" d="M413.3,394.2h-47.8c-1,0-1.1-0.2-1.1-1.4v-65.6c0-0.9-0.1-1,0.9-1h47.9c1,0,1.1,0.1,1.1,1.3v12.2
		c0,0.9-0.3,1.4-1.1,1.4l-31.3-0.3v11.3h27.2c0.9,0,1,0.2,1,1.4v12.2c0,1.2-0.1,1.4-1,1.4H382v11.6l31.3-0.3c1.1,0,1.1,0,1.1,1.3
		v12.9C414.4,394.1,414.3,394.2,413.3,394.2"/>
	<path class="st0" d="M497.6,261.1h-47.8c-1,0-1.1-0.2-1.1-1.4v-65.6c0-0.9-0.1-1,0.9-1h47.9c1,0,1.1,0.1,1.1,1.3v12.2
		c0,0.9-0.3,1.4-1.1,1.4l-31.3-0.3v11.3h27.3c0.9,0,1,0.2,1,1.4v12.2c0,1.2-0.1,1.4-1,1.4h-27.3v11.6l31.3-0.3c1.1,0,1.1,0,1.1,1.3
		v12.9C498.7,260.9,498.7,261.1,497.6,261.1"/>
	<rect x="139.2" y="418.6" class="st1" width="54.7" height="14.3"/>
	<rect x="139.2" y="286.8" class="st1" width="54.7" height="14.3"/>
	<rect x="139" y="155.1" class="st1" width="54.7" height="14.3"/>
	<rect x="139.2" y="25.2" class="st1" width="54.7" height="14.3"/>
</g>
</svg>
